# xmcd CD database file generated by LOLA_Freedb v0.9beta0
# 
# Track frame offsets:
#      150
#      16357
#      27555
#      47654
#      64114
#      73308
#      91748
#      105496
#      119699
#      135523
#      147854
# 
# Disc length: 2295 seconds
# 
# Revision: 0 
# Processed by: cddbd v1.5.1PL2 Copyright (c) Steve Scherf et al.
# Submitted via: LOLA_Freedb v0.9beta0
# 
DISCID=9b08f50b
DTITLE=John Denver - Downhill stuff
DYEAR=1979
DGENRE=
TTITLE0=John Denver - Downhill stuff
TTITLE1=John Denver - Sweet Melinda
TTITLE2=John Denver - What's on your mind
TTITLE3=John Denver - Joseph and Joe
TTITLE4=John Denver - Life is so good
TTITLE5=John Denver - Berkeley woman
TTITLE6=John Denver - Johnny B. Good
TTITLE7=John Denver - You're so beautiful
TTITLE8=John Denver - Southwind
TTITLE9=John Denver - Garden song
TTITLE10=John Denver - Songs of
EXTD=
EXTT0=
EXTT1=
EXTT2=
EXTT3=
EXTT4=
EXTT5=
EXTT6=
EXTT7=
EXTT8=
EXTT9=
EXTT10=
PLAYORDER=
